# xmcd
#
# Track frame offsets:
#	150
#	11997
#	25792
#	37352
#	49935
#	63835
#	76955
#	90157
#	101950
#	113872
#	126355
#	139392
#	152575
#	164780
#	176742
#	189702
#	202992
#	215467
#	227592
#	239970
#	252342
#	265617
#	277767
#	291295
#	302870
#
# Disc length: 4216 seconds
#
# Revision: 4
# Processed by: cddbd v1.5.2PL0 Copyright (c) Steve Scherf et al.
# Submitted via: audiograbber 1.83.01
#
DISCID=77107619
DTITLE=Bob Wills and His Texas Playboys - "The King Of Western Swing" 25 Hits 193
DTITLE=5-1945
DYEAR=1998
DGENRE=Country
TTITLE0=New San Antonio Rose (Tommy Duncan Vocals)
TTITLE1=Osage Stomp
TTITLE2=Never No More Hard Times-Blues (Tommy Duncan Vocals)
TTITLE3=Steel Guitar Rag
TTITLE4=Sugar Blues (Bob Wills Vocal)
TTITLE5=Fan It
TTITLE6=Right Or Wrong (Tommy Duncan Vocals)
TTITLE7=Whoa Baby (Leon AcAuliffe Vocal)
TTITLE8=That's What I Like About The South (Leon AcAuliffe Vocal)
TTITLE9=Lone Star Rag
TTITLE10=Corrine, Corrina (Bob Wills Vocal)
TTITLE11=Bob Wills Special
TTITLE12=Time  Changes Everything (Tommy Duncan Vocals)
TTITLE13=Big Beaver
TTITLE14=Take Me Back To Tulsa (Tommy Duncan Vocals)
TTITLE15=Dusty Skies (Tommy Duncan Vocals)
TTITLE16=We Might As Well Forget It (Leon Huff Vocal)
TTITLE17=Home In San Antone (Tommy Duncan Vocals)
TTITLE18=You're From Texas (Leon AcAuliffe Vocal)
TTITLE19=Goodbye, Liza Jane (Leon AcAuliffe Vocal)
TTITLE20=Texas Playboy Rag
TTITLE21=Roly Poly (Tommy Duncan Vocals)
TTITLE22=Stay A Little Longer (Tommy Duncan Vocals)
TTITLE23=New Spanish Two-Step (Tommy Duncan Vocals)
TTITLE24=I'm Feeling Bad (Harley Huggins Vocal)
EXTD=YEAR: 1998 ID3G: 2
EXTT0=
EXTT1=
EXTT2=
EXTT3=
EXTT4=
EXTT5=
EXTT6=
EXTT7=
EXTT8=
EXTT9=
EXTT10=
EXTT11=
EXTT12=
EXTT13=
EXTT14=
EXTT15=
EXTT16=
EXTT17=
EXTT18=
EXTT19=
EXTT20=
EXTT21=
EXTT22=
EXTT23=
EXTT24=
PLAYORDER=
